<?xml version="1.0" encoding="UTF-8"?>
<svg width="64px" height="45px" viewBox="0 0 64 45" version="1.1" xmlns="http://www.w3.org/2000/svg" xmlns:xlink="http://www.w3.org/1999/xlink">
    <!-- Generator: Sketch 54.1 (76490) - https://sketchapp.com -->
    <title>Group 5 Copy</title>
    <desc>Created with Sketch.</desc>
    <g id="Page-1" stroke="none" stroke-width="1" fill="none" fill-rule="evenodd">
        <g id="Group-5-Copy">
            <g id="Group-9">
                <path d="M5,0 L59,-2.66453526e-15 C61.7614237,-3.17180057e-15 64,2.23857625 64,5 L64,39.5109461 C64,42.2723699 61.7614237,44.5109461 59,44.5109461 C58.4314849,44.5109461 57.8671336,44.4139884 57.3312176,44.2242428 L33.6753324,35.8486774 C32.5916552,35.4649923 31.4088638,35.4664523 30.326137,35.8528114 L6.68041303,44.2905288 C4.07961436,45.2185953 1.21890392,43.8625779 0.290837435,41.2617792 C0.0983764665,40.7224297 2.73466585e-15,40.1540259 2.66453526e-15,39.5813662 L0,5 C-3.38176876e-16,2.23857625 2.23857625,5.07265313e-16 5,0 Z" id="Combined-Shape" fill="#4CC4DA"></path>
                <rect id="Rectangle" fill="#1696BA" x="0" y="0" width="64" height="6"></rect>
            </g>
            <g id="logo" transform="translate(12.000000, 15.000000)">
                <g id="Group-2">
                    <path d="M2.47578947,0.190666667 L2.47578947,9.53333333 C2.47578947,10.111114 2.79017229,10.4 3.41894737,10.4 L4.09263158,10.4 L4.37894737,12.1853333 C3.95227857,12.4164456 3.28982905,12.532 2.39157895,12.532 C1.65052261,12.532 1.0666688,12.3268909 0.64,11.9166667 C0.2133312,11.5064424 1.13686838e-13,10.9257815 1.13686838e-13,10.1746667 L1.13686838e-13,0.190666667 L2.47578947,0.190666667 Z" id="Path" fill="#131516" fill-rule="nonzero"></path>
                    <path d="M6.23157895,7.10542736e-15 L7.34315789,7.10542736e-15 C7.82596733,7.10542736e-15 8.06736842,0.24844196 8.06736842,0.745333333 L8.06736842,1.68133333 C8.06736842,2.17822471 7.82596733,2.42666667 7.34315789,2.42666667 L6.23157895,2.42666667 C5.74876952,2.42666667 5.50736842,2.17822471 5.50736842,1.68133333 L5.50736842,0.745333333 C5.50736842,0.24844196 5.74876952,7.10542736e-15 6.23157895,7.10542736e-15 Z" id="Path" fill="#FFFFFF" fill-rule="nonzero"></path>
                    <polygon id="Path" fill="#131516" fill-rule="nonzero" points="8.03368421 12.324 5.55789474 12.324 5.55789474 3.77866667 8.03368421 3.77866667"></polygon>
                    <path d="M12.16,3.77866667 L12.3452632,5.044 C13.5466727,4.03866164 14.7312222,3.536 15.8989474,3.536 C16.6512318,3.536 17.2266647,3.7382202 17.6252632,4.14266667 C18.0238616,4.54711313 18.2231579,5.13644057 18.2231579,5.91066667 L18.2231579,12.324 L15.7473684,12.324 L15.7473684,6.708 C15.7473684,6.32666476 15.6884216,6.0637785 15.5705263,5.91933333 C15.452631,5.77488817 15.2421068,5.70266667 14.9389474,5.70266667 C14.4112254,5.70266667 13.6421103,5.96266407 12.6315789,6.48266667 L12.6315789,12.324 L10.1389474,12.324 L10.1389474,3.77866667 L12.16,3.77866667 Z" id="Path" fill="#131516" fill-rule="nonzero"></path>
                    <path d="M23.3936842,8.35466667 L22.6021053,8.35466667 C22.6807021,8.87466927 22.72,9.30222055 22.72,9.63733333 L22.72,12.324 L20.2273684,12.324 L20.2273684,0.190666667 L22.72,0.190666667 L22.72,5.2 C22.72,5.76622505 22.6807021,6.28621985 22.6021053,6.76 L23.3768421,6.76 L25.4315789,3.77866667 L28.2273684,3.77866667 L26.0715789,6.74266667 C25.8919289,7.05466823 25.6336859,7.32622107 25.2968421,7.55733333 L25.2968421,7.592 C25.5775453,7.78844543 25.8357883,8.09466459 26.0715789,8.51066667 L28.5136842,12.324 L25.7178947,12.324 L23.3936842,8.35466667 Z" id="Path" fill="#131516" fill-rule="nonzero"></path>
                    <path d="M30.3494737,7.10542736e-15 L31.4610526,7.10542736e-15 C31.9438621,7.10542736e-15 32.1852632,0.24844196 32.1852632,0.745333333 L32.1852632,1.68133333 C32.1852632,2.17822471 31.9438621,2.42666667 31.4610526,2.42666667 L30.3494737,2.42666667 C29.8666643,2.42666667 29.6252632,2.17822471 29.6252632,1.68133333 L29.6252632,0.745333333 C29.6252632,0.24844196 29.8666643,7.10542736e-15 30.3494737,7.10542736e-15 Z" id="Path" fill="#131516" fill-rule="nonzero"></path>
                    <polygon id="Path" fill="#FFFFFF" fill-rule="nonzero" points="32.1515789 12.324 29.6757895 12.324 29.6757895 3.77866667 32.1515789 3.77866667"></polygon>
                    <path d="M37.4905263,5.49466667 L37.4905263,9.53333333 C37.4905263,9.85689051 37.5578941,10.0822216 37.6926316,10.2093333 C37.8273691,10.3364451 38.0631562,10.4 38.4,10.4 L39.4610526,10.4 L39.7305263,12.1853333 C39.0905231,12.4164456 38.31018,12.532 37.3894737,12.532 C36.6371892,12.532 36.0533354,12.3153355 35.6378947,11.882 C35.2224541,11.4486645 35.0147368,10.8448928 35.0147368,10.0706667 L35.0147368,5.49466667 L33.5494737,5.49466667 L33.5494737,3.86533333 L35.0147368,3.77866667 L35.0147368,1.38666667 L37.4905263,1.38666667 L37.4905263,3.77866667 L39.7978947,3.77866667 L39.7978947,5.49466667 L37.4905263,5.49466667 Z" id="Path" fill="#FFFFFF" fill-rule="nonzero"></path>
                </g>
            </g>
        </g>
    </g>
</svg>