<?xml version="1.0" encoding="UTF-8"?>
<svg width="62px" height="62px" viewBox="0 0 62 62" version="1.1" xmlns="http://www.w3.org/2000/svg" xmlns:xlink="http://www.w3.org/1999/xlink">
    <!-- Generator: Sketch 53.2 (72643) - https://sketchapp.com -->
    <title>Group 8</title>
    <desc>Created with Sketch.</desc>
    <defs>
        <rect id="path-1" x="0" y="0" width="62" height="62" rx="31"></rect>
    </defs>
    <g id="Page-1" stroke="none" stroke-width="1" fill="none" fill-rule="evenodd">
        <g id="Desktop-HD" transform="translate(-583.000000, -168.000000)">
            <g id="Group-4-Copy-9" transform="translate(569.000000, 154.000000)">
                <g id="Group-8" transform="translate(14.000000, 14.000000)">
                    <g id="screenshot-2019-03-29-um-12.48.55">
                        <mask id="mask-2" fill="white">
                            <use xlink:href="#path-1"></use>
                        </mask>
                        <rect stroke="#EF6C6C" stroke-width="2" x="1" y="1" width="60" height="60" rx="30"></rect>
                    </g>
                    <g id="save" transform="translate(16.000000, 16.000000)" fill-rule="nonzero">
                        <path d="M1.86854093,0 L28.0276868,0 C29.0591103,0 29.8962278,0.836156584 29.8962278,1.86854093 L29.8962278,28.0276868 C29.8962278,29.0600712 29.0591103,29.8962278 28.0276868,29.8962278 L1.86854093,29.8962278 C0.837117438,29.896121 0,29.0599644 0,28.0276868 L0,1.86854093 C0,0.837117438 0.837117438,0 1.86854093,0 Z" id="Path" fill="#324D5B"></path>
                        <path d="M5.60551601,18.685089 L24.290605,18.685089 C25.3220285,18.685089 26.1591459,19.5222064 26.1591459,20.5536299 L26.1591459,29.8962278 L3.73697509,29.8962278 L3.73697509,20.5536299 C3.73697509,19.5222064 4.57409253,18.685089 5.60551601,18.685089 Z" id="Path" fill="#CCD0D2"></path>
                        <path d="M5.60551601,16.816548 L24.290605,16.816548 C25.3220285,16.816548 26.1591459,17.6536655 26.1591459,18.685089 L26.1591459,21.4879004 L3.73697509,21.4879004 L3.73697509,18.685089 C3.73697509,17.6536655 4.57409253,16.816548 5.60551601,16.816548 Z" id="Path" fill="#E4E7E7"></path>
                        <path d="M26.1591459,0 L26.1591459,11.211032 C26.1591459,12.2434164 25.3220285,13.079573 24.290605,13.079573 L5.60551601,13.079573 C4.57409253,13.079573 3.73697509,12.2434164 3.73697509,11.211032 L3.73697509,0 L26.1591459,0 Z" id="Path" fill="#2B414D"></path>
                        <path d="M13.079573,0 L13.079573,10.2767616 C13.079573,10.7924199 13.4980783,11.211032 14.0138434,11.211032 L23.3564413,11.211032 C23.8730605,11.211032 24.2907117,10.7925267 24.2907117,10.2767616 L24.2907117,0 L13.079573,0 Z M22.4221708,8.4083274 C22.4221708,8.92398577 22.0045196,9.34259786 21.4879004,9.34259786 L20.5536299,9.34259786 C20.0370107,9.34259786 19.6193594,8.92409253 19.6193594,8.4083274 L19.6193594,2.80281139 C19.6193594,2.28715302 20.0370107,1.86854093 20.5536299,1.86854093 L21.4879004,1.86854093 C22.0045196,1.86854093 22.4221708,2.28704626 22.4221708,2.80281139 L22.4221708,8.4083274 Z" id="Shape" fill="#CCD0D2"></path>
                    </g>
                </g>
            </g>
        </g>
    </g>
</svg>